<svg width="50" height="50" version="1.1" viewBox="0 0 13.23 13.23" xmlns="http://www.w3.org/2000/svg">
<g transform="translate(-6.56 -264.8)">
<path transform="matrix(.2646 0 0 .2646 6.56 264.8)" d="m37.71 0.2227-0.06055 4.24h-37.65v7.52s1.144 0.2419 2.109 1.207c0.9651 0.9651 0.7224 0.9647 0.1191 3.016-0.6032 2.051 1.449 1.568 3.5 3.137 2.051 1.568 3.377 2.654 3.98 3.258 0.6032 0.6032-0.7248 3.256-0.2422 5.428 0.4826 2.172 1.811 0.9665 3.379 0.7246 1.568-0.2411 3.741-0.1211 5.43-0.1211 1.689 0 0.8434 0.4837 1.809 2.414 0.9652 1.93-0.1202 0.9645 0.1211 1.93 0.2413 0.9651 0.9642 1.206 1.326 3.016 0.3619 1.809 0.8457 2.172 0.8457 2.172s1.568 0.8457 4.102 1.328c2.534 0.4825 1.327-2.534 3.137-3.258 1.81-0.7237 2.051 0.4824 4.223-1.086 2.172-1.568 2.171 1.568 2.895 3.137 0.7239 1.568 0.4829 1.327 0.6035 3.619 0.1206 2.293 0.6041 0.7236 1.811 2.051 1.206 1.327 0.3615 0.9652 1.447 3.137 1.086 2.172 3.109 0.8512 6.48 2.172 0.3745 0.1467 0.8939 0.3886 1.385 0.502 0.4909 0.1134 1.541 0.2363 1.541 0.2363v-45.6c-1.21 0.01361-2.452 0.03617-3.727 0.06641v-4.24h-8.566zm-29.71 6.346h35.26v12.3h-35.26v-11.55-0.752zm1.506 1.506v9.301h32.24v-9.301h-32.24zm2.229 1.033h1.498v3.078h-1.498v-3.078zm3.75 0h1.498v3.078h-1.498v-3.078zm3.75 0h1.498v5.973h-1.498v-5.973zm3.75 0h1.498v3.078h-1.498v-3.078zm3.75 0h1.498v3.078h-1.498v-3.078zm3.75 0h1.498v5.973h-1.498v-5.973zm3.75 0h1.498v3.078h-1.498v-3.078zm3.75 0h1.498v3.078h-1.498v-3.078z" fill="#b3b3b3"/>
<text x="11.284459" y="268.74289" fill="#000000" font-family="'Nimbus Roman No9 L'" font-size="4.233px" letter-spacing="0px" stroke-width=".2646" word-spacing="0px" style="line-height:1.25" xml:space="preserve"><tspan x="11.284459" y="272.51819" stroke-width=".2646"/></text>
</g>
</svg>
